{
  "accessors": [
    {
      "bufferView": 1,
      "componentType": 5126,
      "count": 14485,
      "max": [
        1.9548300504684448,
        1.9124900102615356,
        0.2010200023651123
      ],
      "min": [
        -1.9577599763870239,
        -1.500249981880188,
        0
      ],
      "type": "VEC3"
    },
    {
      "bufferView": 1,
      "byteOffset": 173820,
      "componentType": 5126,
      "count": 14485,
      "max": [
        1,
        1,
        1
      ],
      "min": [
        -1,
        -1,
        -1
      ],
      "type": "VEC3"
    },
    {
      "bufferView": 0,
      "componentType": 5125,
      "count": 42588,
      "max": [
        14484
      ],
      "min": [
        0
      ],
      "type": "SCALAR"
    },
    {
      "bufferView": 1,
      "byteOffset": 347640,
      "componentType": 5126,
      "count": 24,
      "max": [
        1.0168000459671021,
        0.96726000308990479,
        0.13143999874591827
      ],
      "min": [
        -1.0058300495147705,
        0.7595900297164917,
        0.063680000603199005
      ],
      "type": "VEC3"
    },
    {
      "bufferView": 1,
      "byteOffset": 347928,
      "componentType": 5126,
      "count": 24,
      "max": [
        0.96802628040313721,
        1,
        1
      ],
      "min": [
        -0.96802628040313721,
        -1,
        -1
      ],
      "type": "VEC3"
    },
    {
      "bufferView": 0,
      "byteOffset": 170352,
      "componentType": 5125,
      "count": 36,
      "max": [
        23
      ],
      "min": [
        0
      ],
      "type": "SCALAR"
    },
    {
      "bufferView": 1,
      "byteOffset": 348216,
      "componentType": 5126,
      "count": 301,
      "max": [
        1.5978200435638428,
        1.6494200229644775,
        0.13401000201702118
      ],
      "min": [
        -1.5602999925613403,
        0.57617002725601196,
        0.067010000348091125
      ],
      "type": "VEC3"
    },
    {
      "bufferView": 1,
      "byteOffset": 351828,
      "componentType": 5126,
      "count": 301,
      "max": [
        0,
        0,
        1
      ],
      "min": [
        0,
        0,
        -1
      ],
      "type": "VEC3"
    },
    {
      "bufferView": 0,
      "byteOffset": 170496,
      "componentType": 5125,
      "count": 879,
      "max": [
        300
      ],
      "min": [
        0
      ],
      "type": "SCALAR"
    },
    {
      "bufferView": 1,
      "byteOffset": 355440,
      "componentType": 5126,
      "count": 2820,
      "max": [
        1.8724299669265747,
        1.8291200399398804,
        0.13401000201702118
      ],
      "min": [
        -1.8760999441146851,
        -1.4168499708175659,
        0.067010000348091125
      ],
      "type": "VEC3"
    },
    {
      "bufferView": 1,
      "byteOffset": 389280,
      "componentType": 5126,
      "count": 2820,
      "max": [
        0,
        0,
        1
      ],
      "min": [
        0,
        0,
        -1
      ],
      "type": "VEC3"
    },
    {
      "bufferView": 0,
      "byteOffset": 174012,
      "componentType": 5125,
      "count": 8292,
      "max": [
        2819
      ],
      "min": [
        0
      ],
      "type": "SCALAR"
    }
  ],
  "asset": {
    "extras": {
      "author": "Jhimwell Vizconde (https://sketchfab.com/jhimwell0801)",
      "license": "CC-BY-4.0 (http://creativecommons.org/licenses/by/4.0/)",
      "source": "https://sketchfab.com/models/5e22b178523349b19aae58c4b45790c2",
      "title": "One Piece Logo"
    },
    "generator": "Sketchfab-3.18.5",
    "version": "2.0"
  },
  "bufferViews": [
    {
      "buffer": 0,
      "byteLength": 207180,
      "byteOffset": 0,
      "name": "floatBufferViews",
      "target": 34963
    },
    {
      "buffer": 0,
      "byteLength": 423120,
      "byteOffset": 207180,
      "byteStride": 12,
      "name": "floatBufferViews",
      "target": 34962
    }
  ],
  "buffers": [
    {
      "byteLength": 630300,
      "uri": "scene.bin"
    }
  ],
  "extensionsRequired": [
    "KHR_materials_pbrSpecularGlossiness"
  ],
  "extensionsUsed": [
    "KHR_materials_pbrSpecularGlossiness"
  ],
  "materials": [
    {
      "doubleSided": true,
      "extensions": {
        "KHR_materials_pbrSpecularGlossiness": {
          "diffuseFactor": [
            0.0077261005999999998,
            0.0077261005999999998,
            0.0077261005999999998,
            1
          ],
          "glossinessFactor": 0.46512957319999998,
          "specularFactor": [
            0,
            0,
            0
          ]
        }
      },
      "name": "Material"
    },
    {
      "doubleSided": true,
      "extensions": {
        "KHR_materials_pbrSpecularGlossiness": {
          "diffuseFactor": [
            0.79910273799999998,
            0.010960094,
            0,
            1
          ],
          "glossinessFactor": 0.37023628050000001,
          "specularFactor": [
            0.050000000000000003,
            0.050000000000000003,
            0.050000000000000003
          ]
        }
      },
      "name": "Material.003"
    },
    {
      "doubleSided": true,
      "extensions": {
        "KHR_materials_pbrSpecularGlossiness": {
          "diffuseFactor": [
            1,
            0.83958023820000005,
            0.0038175728999999999,
            1
          ],
          "glossinessFactor": 0.73951981710000003,
          "specularFactor": [
            0.099275914600000001,
            0.099275914600000001,
            0.099275914600000001
          ]
        }
      },
      "name": "Material.001"
    },
    {
      "doubleSided": true,
      "extensions": {
        "KHR_materials_pbrSpecularGlossiness": {
          "diffuseFactor": [
            1,
            1,
            1,
            1
          ],
          "glossinessFactor": 0.84584603660000002,
          "specularFactor": [
            0.14283536796467608,
            0.14283536796467608,
            0.14283536796467608
          ]
        }
      },
      "name": "Material.002"
    }
  ],
  "meshes": [
    {
      "name": "Curve_0",
      "primitives": [
        {
          "attributes": {
            "NORMAL": 1,
            "POSITION": 0
          },
          "indices": 2,
          "material": 0,
          "mode": 4
        }
      ]
    },
    {
      "name": "Curve_1",
      "primitives": [
        {
          "attributes": {
            "NORMAL": 4,
            "POSITION": 3
          },
          "indices": 5,
          "material": 1,
          "mode": 4
        }
      ]
    },
    {
      "name": "Curve_2",
      "primitives": [
        {
          "attributes": {
            "NORMAL": 7,
            "POSITION": 6
          },
          "indices": 8,
          "material": 2,
          "mode": 4
        }
      ]
    },
    {
      "name": "Curve_3",
      "primitives": [
        {
          "attributes": {
            "NORMAL": 10,
            "POSITION": 9
          },
          "indices": 11,
          "material": 3,
          "mode": 4
        }
      ]
    }
  ],
  "nodes": [
    {
      "children": [
        1
      ],
      "name": "RootNode (gltf orientation matrix)",
      "rotation": [
        -0.70710678118654746,
        -0,
        -0,
        0.70710678118654757
      ]
    },
    {
      "children": [
        2
      ],
      "name": "RootNode (model correction matrix)"
    },
    {
      "children": [
        3,
        8
      ],
      "name": "Root"
    },
    {
      "children": [
        4,
        5,
        6,
        7
      ],
      "matrix": [
        1,
        0,
        0,
        0,
        0,
        1,
        0,
        0,
        0,
        0,
        1,
        0,
        -0.005490000000000001,
        -0.05068000000000001,
        0,
        1
      ],
      "name": "Curve"
    },
    {
      "mesh": 0,
      "name": "Curve_0"
    },
    {
      "mesh": 1,
      "name": "Curve_1"
    },
    {
      "mesh": 2,
      "name": "Curve_2"
    },
    {
      "mesh": 3,
      "name": "Curve_3"
    },
    {
      "children": [
        9
      ],
      "matrix": [
        1,
        0,
        0,
        0,
        0,
        1,
        0,
        0,
        0,
        0,
        1,
        0,
        0,
        0,
        5.0370799999999996,
        1
      ],
      "name": "Hemi"
    },
    {
      "name": "Hemi"
    }
  ],
  "scene": 0,
  "scenes": [
    {
      "name": "OSG_Scene",
      "nodes": [
        0
      ]
    }
  ]
}

